<mxfile host="app.diagrams.net" modified="2022-05-10T06:40:05.417Z" agent="5.0 (Macintosh; Intel Mac OS X 10_15_7) AppleWebKit/537.36 (KHTML, like Gecko) Chrome/101.0.4951.54 Safari/537.36" etag="_yd6C0rs2hwiXuAh2ZXm" version="18.0.2" type="github" pages="2">
  <diagram id="dYi-SCCvsg37tO44i1gK" name="Design-1">
    <mxGraphModel dx="946" dy="613" grid="1" gridSize="10" guides="1" tooltips="1" connect="1" arrows="1" fold="1" page="1" pageScale="1" pageWidth="827" pageHeight="1169" math="0" shadow="0">
      <root>
        <mxCell id="0" />
        <mxCell id="1" parent="0" />
        <mxCell id="KZ4r9hNkFcLXsH2UTqzE-3" value="KernelFactory" style="swimlane;fontStyle=1;align=center;verticalAlign=top;childLayout=stackLayout;horizontal=1;startSize=26;horizontalStack=0;resizeParent=1;resizeParentMax=0;resizeLast=0;collapsible=1;marginBottom=0;fillColor=#dae8fc;strokeColor=#6c8ebf;" parent="1" vertex="1">
          <mxGeometry x="249" y="140" width="330" height="110" as="geometry" />
        </mxCell>
        <mxCell id="KZ4r9hNkFcLXsH2UTqzE-4" value="- kernels_: map&lt;KernelName, map&lt;KernelKey, Kernel&gt;&gt;;" style="text;strokeColor=none;fillColor=none;align=left;verticalAlign=top;spacingLeft=4;spacingRight=4;overflow=hidden;rotatable=0;points=[[0,0.5],[1,0.5]];portConstraint=eastwest;" parent="KZ4r9hNkFcLXsH2UTqzE-3" vertex="1">
          <mxGeometry y="26" width="330" height="24" as="geometry" />
        </mxCell>
        <mxCell id="KZ4r9hNkFcLXsH2UTqzE-5" value="" style="line;strokeWidth=1;fillColor=none;align=left;verticalAlign=middle;spacingTop=-1;spacingLeft=3;spacingRight=3;rotatable=0;labelPosition=right;points=[];portConstraint=eastwest;" parent="KZ4r9hNkFcLXsH2UTqzE-3" vertex="1">
          <mxGeometry y="50" width="330" height="8" as="geometry" />
        </mxCell>
        <mxCell id="KZ4r9hNkFcLXsH2UTqzE-6" value="+ Instance():Â KernelFactory" style="text;strokeColor=none;fillColor=none;align=left;verticalAlign=top;spacingLeft=4;spacingRight=4;overflow=hidden;rotatable=0;points=[[0,0.5],[1,0.5]];portConstraint=eastwest;" parent="KZ4r9hNkFcLXsH2UTqzE-3" vertex="1">
          <mxGeometry y="58" width="330" height="26" as="geometry" />
        </mxCell>
        <mxCell id="KZ4r9hNkFcLXsH2UTqzE-7" value="+ SelectKernel(KernelName, KernelKey): Kernel" style="text;strokeColor=none;fillColor=none;align=left;verticalAlign=top;spacingLeft=4;spacingRight=4;overflow=hidden;rotatable=0;points=[[0,0.5],[1,0.5]];portConstraint=eastwest;" parent="KZ4r9hNkFcLXsH2UTqzE-3" vertex="1">
          <mxGeometry y="84" width="330" height="26" as="geometry" />
        </mxCell>
        <mxCell id="KZ4r9hNkFcLXsH2UTqzE-8" value="KernelName" style="swimlane;fontStyle=1;align=center;verticalAlign=top;childLayout=stackLayout;horizontal=1;startSize=26;horizontalStack=0;resizeParent=1;resizeParentMax=0;resizeLast=0;collapsible=1;marginBottom=0;fillColor=#f8cecc;strokeColor=#b85450;" parent="1" vertex="1">
          <mxGeometry x="70" y="300" width="200" height="112" as="geometry" />
        </mxCell>
        <mxCell id="KZ4r9hNkFcLXsH2UTqzE-9" value="- name_: std::string" style="text;strokeColor=none;fillColor=none;align=left;verticalAlign=top;spacingLeft=4;spacingRight=4;overflow=hidden;rotatable=0;points=[[0,0.5],[1,0.5]];portConstraint=eastwest;" parent="KZ4r9hNkFcLXsH2UTqzE-8" vertex="1">
          <mxGeometry y="26" width="200" height="26" as="geometry" />
        </mxCell>
        <mxCell id="KZ4r9hNkFcLXsH2UTqzE-20" value="- overload_name_: std::string" style="text;strokeColor=none;fillColor=none;align=left;verticalAlign=top;spacingLeft=4;spacingRight=4;overflow=hidden;rotatable=0;points=[[0,0.5],[1,0.5]];portConstraint=eastwest;" parent="KZ4r9hNkFcLXsH2UTqzE-8" vertex="1">
          <mxGeometry y="52" width="200" height="26" as="geometry" />
        </mxCell>
        <mxCell id="KZ4r9hNkFcLXsH2UTqzE-10" value="" style="line;strokeWidth=1;fillColor=none;align=left;verticalAlign=middle;spacingTop=-1;spacingLeft=3;spacingRight=3;rotatable=0;labelPosition=right;points=[];portConstraint=eastwest;" parent="KZ4r9hNkFcLXsH2UTqzE-8" vertex="1">
          <mxGeometry y="78" width="200" height="8" as="geometry" />
        </mxCell>
        <mxCell id="KZ4r9hNkFcLXsH2UTqzE-11" value="+ KernelName(string, string)" style="text;strokeColor=none;fillColor=none;align=left;verticalAlign=top;spacingLeft=4;spacingRight=4;overflow=hidden;rotatable=0;points=[[0,0.5],[1,0.5]];portConstraint=eastwest;" parent="KZ4r9hNkFcLXsH2UTqzE-8" vertex="1">
          <mxGeometry y="86" width="200" height="26" as="geometry" />
        </mxCell>
        <mxCell id="KZ4r9hNkFcLXsH2UTqzE-12" value="KernelKey" style="swimlane;fontStyle=1;align=center;verticalAlign=top;childLayout=stackLayout;horizontal=1;startSize=26;horizontalStack=0;resizeParent=1;resizeParentMax=0;resizeLast=0;collapsible=1;marginBottom=0;fillColor=#ffe6cc;strokeColor=#d79b00;" parent="1" vertex="1">
          <mxGeometry x="339" y="300" width="160" height="138" as="geometry" />
        </mxCell>
        <mxCell id="KZ4r9hNkFcLXsH2UTqzE-13" value="- backend_: Backend" style="text;strokeColor=none;fillColor=none;align=left;verticalAlign=top;spacingLeft=4;spacingRight=4;overflow=hidden;rotatable=0;points=[[0,0.5],[1,0.5]];portConstraint=eastwest;" parent="KZ4r9hNkFcLXsH2UTqzE-12" vertex="1">
          <mxGeometry y="26" width="160" height="26" as="geometry" />
        </mxCell>
        <mxCell id="KZ4r9hNkFcLXsH2UTqzE-21" value="- layout_: DataLayout" style="text;strokeColor=none;fillColor=none;align=left;verticalAlign=top;spacingLeft=4;spacingRight=4;overflow=hidden;rotatable=0;points=[[0,0.5],[1,0.5]];portConstraint=eastwest;" parent="KZ4r9hNkFcLXsH2UTqzE-12" vertex="1">
          <mxGeometry y="52" width="160" height="26" as="geometry" />
        </mxCell>
        <mxCell id="KZ4r9hNkFcLXsH2UTqzE-22" value="- dtype_: DataType" style="text;strokeColor=none;fillColor=none;align=left;verticalAlign=top;spacingLeft=4;spacingRight=4;overflow=hidden;rotatable=0;points=[[0,0.5],[1,0.5]];portConstraint=eastwest;" parent="KZ4r9hNkFcLXsH2UTqzE-12" vertex="1">
          <mxGeometry y="78" width="160" height="26" as="geometry" />
        </mxCell>
        <mxCell id="KZ4r9hNkFcLXsH2UTqzE-14" value="" style="line;strokeWidth=1;fillColor=none;align=left;verticalAlign=middle;spacingTop=-1;spacingLeft=3;spacingRight=3;rotatable=0;labelPosition=right;points=[];portConstraint=eastwest;" parent="KZ4r9hNkFcLXsH2UTqzE-12" vertex="1">
          <mxGeometry y="104" width="160" height="8" as="geometry" />
        </mxCell>
        <mxCell id="KZ4r9hNkFcLXsH2UTqzE-15" value="+ KernelKey(...)" style="text;strokeColor=none;fillColor=none;align=left;verticalAlign=top;spacingLeft=4;spacingRight=4;overflow=hidden;rotatable=0;points=[[0,0.5],[1,0.5]];portConstraint=eastwest;" parent="KZ4r9hNkFcLXsH2UTqzE-12" vertex="1">
          <mxGeometry y="112" width="160" height="26" as="geometry" />
        </mxCell>
        <mxCell id="KZ4r9hNkFcLXsH2UTqzE-16" value="Kernel" style="swimlane;fontStyle=1;align=center;verticalAlign=top;childLayout=stackLayout;horizontal=1;startSize=26;horizontalStack=0;resizeParent=1;resizeParentMax=0;resizeLast=0;collapsible=1;marginBottom=0;fillColor=#d5e8d4;strokeColor=#82b366;" parent="1" vertex="1">
          <mxGeometry x="560" y="300" width="190" height="164" as="geometry" />
        </mxCell>
        <mxCell id="KZ4r9hNkFcLXsH2UTqzE-17" value="- fn_: KernelFn" style="text;strokeColor=none;fillColor=none;align=left;verticalAlign=top;spacingLeft=4;spacingRight=4;overflow=hidden;rotatable=0;points=[[0,0.5],[1,0.5]];portConstraint=eastwest;" parent="KZ4r9hNkFcLXsH2UTqzE-16" vertex="1">
          <mxGeometry y="26" width="190" height="26" as="geometry" />
        </mxCell>
        <mxCell id="KZ4r9hNkFcLXsH2UTqzE-23" value="- args_def_: KernelArgsDef" style="text;strokeColor=none;fillColor=none;align=left;verticalAlign=top;spacingLeft=4;spacingRight=4;overflow=hidden;rotatable=0;points=[[0,0.5],[1,0.5]];portConstraint=eastwest;" parent="KZ4r9hNkFcLXsH2UTqzE-16" vertex="1">
          <mxGeometry y="52" width="190" height="26" as="geometry" />
        </mxCell>
        <mxCell id="KZ4r9hNkFcLXsH2UTqzE-18" value="" style="line;strokeWidth=1;fillColor=none;align=left;verticalAlign=middle;spacingTop=-1;spacingLeft=3;spacingRight=3;rotatable=0;labelPosition=right;points=[];portConstraint=eastwest;" parent="KZ4r9hNkFcLXsH2UTqzE-16" vertex="1">
          <mxGeometry y="78" width="190" height="8" as="geometry" />
        </mxCell>
        <mxCell id="KZ4r9hNkFcLXsH2UTqzE-19" value="+ Kernel(KernelFn):" style="text;strokeColor=none;fillColor=none;align=left;verticalAlign=top;spacingLeft=4;spacingRight=4;overflow=hidden;rotatable=0;points=[[0,0.5],[1,0.5]];portConstraint=eastwest;" parent="KZ4r9hNkFcLXsH2UTqzE-16" vertex="1">
          <mxGeometry y="86" width="190" height="26" as="geometry" />
        </mxCell>
        <mxCell id="KZ4r9hNkFcLXsH2UTqzE-24" value="+ InputAt(size_t): TensorArgDef" style="text;strokeColor=none;fillColor=none;align=left;verticalAlign=top;spacingLeft=4;spacingRight=4;overflow=hidden;rotatable=0;points=[[0,0.5],[1,0.5]];portConstraint=eastwest;" parent="KZ4r9hNkFcLXsH2UTqzE-16" vertex="1">
          <mxGeometry y="112" width="190" height="26" as="geometry" />
        </mxCell>
        <mxCell id="KZ4r9hNkFcLXsH2UTqzE-25" value="+ OutputAt(size_t): TensorArgDef" style="text;strokeColor=none;fillColor=none;align=left;verticalAlign=top;spacingLeft=4;spacingRight=4;overflow=hidden;rotatable=0;points=[[0,0.5],[1,0.5]];portConstraint=eastwest;" parent="KZ4r9hNkFcLXsH2UTqzE-16" vertex="1">
          <mxGeometry y="138" width="190" height="26" as="geometry" />
        </mxCell>
        <mxCell id="KZ4r9hNkFcLXsH2UTqzE-26" value="KernelArgsDef" style="swimlane;fontStyle=1;align=center;verticalAlign=top;childLayout=stackLayout;horizontal=1;startSize=26;horizontalStack=0;resizeParent=1;resizeParentMax=0;resizeLast=0;collapsible=1;marginBottom=0;fillColor=#d5e8d4;strokeColor=#82b366;" parent="1" vertex="1">
          <mxGeometry x="350" y="510" width="290" height="190" as="geometry" />
        </mxCell>
        <mxCell id="KZ4r9hNkFcLXsH2UTqzE-27" value="- input_defs_: vector&lt;TensorArgDef&gt;" style="text;strokeColor=none;fillColor=none;align=left;verticalAlign=top;spacingLeft=4;spacingRight=4;overflow=hidden;rotatable=0;points=[[0,0.5],[1,0.5]];portConstraint=eastwest;" parent="KZ4r9hNkFcLXsH2UTqzE-26" vertex="1">
          <mxGeometry y="26" width="290" height="26" as="geometry" />
        </mxCell>
        <mxCell id="KZ4r9hNkFcLXsH2UTqzE-28" value="- output_defs_: vector&lt;TensorArgDef&gt;" style="text;strokeColor=none;fillColor=none;align=left;verticalAlign=top;spacingLeft=4;spacingRight=4;overflow=hidden;rotatable=0;points=[[0,0.5],[1,0.5]];portConstraint=eastwest;" parent="KZ4r9hNkFcLXsH2UTqzE-26" vertex="1">
          <mxGeometry y="52" width="290" height="26" as="geometry" />
        </mxCell>
        <mxCell id="KZ4r9hNkFcLXsH2UTqzE-33" value="- attribute_defs_:Â vector&lt;AttributeArgDef&gt;" style="text;strokeColor=none;fillColor=none;align=left;verticalAlign=top;spacingLeft=4;spacingRight=4;overflow=hidden;rotatable=0;points=[[0,0.5],[1,0.5]];portConstraint=eastwest;" parent="KZ4r9hNkFcLXsH2UTqzE-26" vertex="1">
          <mxGeometry y="78" width="290" height="26" as="geometry" />
        </mxCell>
        <mxCell id="KZ4r9hNkFcLXsH2UTqzE-29" value="" style="line;strokeWidth=1;fillColor=none;align=left;verticalAlign=middle;spacingTop=-1;spacingLeft=3;spacingRight=3;rotatable=0;labelPosition=right;points=[];portConstraint=eastwest;" parent="KZ4r9hNkFcLXsH2UTqzE-26" vertex="1">
          <mxGeometry y="104" width="290" height="8" as="geometry" />
        </mxCell>
        <mxCell id="KZ4r9hNkFcLXsH2UTqzE-30" value="+Â AppendInput(Backend, Layout, DType): void" style="text;strokeColor=none;fillColor=none;align=left;verticalAlign=top;spacingLeft=4;spacingRight=4;overflow=hidden;rotatable=0;points=[[0,0.5],[1,0.5]];portConstraint=eastwest;" parent="KZ4r9hNkFcLXsH2UTqzE-26" vertex="1">
          <mxGeometry y="112" width="290" height="26" as="geometry" />
        </mxCell>
        <mxCell id="KZ4r9hNkFcLXsH2UTqzE-31" value="+ AppendOutput(Backend, Layout, DType): void" style="text;strokeColor=none;fillColor=none;align=left;verticalAlign=top;spacingLeft=4;spacingRight=4;overflow=hidden;rotatable=0;points=[[0,0.5],[1,0.5]];portConstraint=eastwest;" parent="KZ4r9hNkFcLXsH2UTqzE-26" vertex="1">
          <mxGeometry y="138" width="290" height="26" as="geometry" />
        </mxCell>
        <mxCell id="KZ4r9hNkFcLXsH2UTqzE-32" value="+Â AppendAttribute(std::type_index): coid" style="text;strokeColor=none;fillColor=none;align=left;verticalAlign=top;spacingLeft=4;spacingRight=4;overflow=hidden;rotatable=0;points=[[0,0.5],[1,0.5]];portConstraint=eastwest;" parent="KZ4r9hNkFcLXsH2UTqzE-26" vertex="1">
          <mxGeometry y="164" width="290" height="26" as="geometry" />
        </mxCell>
        <mxCell id="KZ4r9hNkFcLXsH2UTqzE-34" value="" style="text;strokeColor=none;fillColor=none;align=left;verticalAlign=middle;spacingTop=-1;spacingLeft=4;spacingRight=4;rotatable=0;labelPosition=right;points=[];portConstraint=eastwest;" parent="1" vertex="1">
          <mxGeometry x="160" y="600" width="20" height="14" as="geometry" />
        </mxCell>
        <mxCell id="KZ4r9hNkFcLXsH2UTqzE-36" value="&lt;p style=&quot;margin: 0px ; margin-top: 4px ; text-align: center&quot;&gt;&lt;br&gt;&lt;b&gt;KernelFn =&amp;nbsp;&lt;/b&gt;&lt;/p&gt;&lt;p style=&quot;margin: 0px ; margin-top: 4px ; text-align: center&quot;&gt;&lt;b&gt;void (*)(KernelContext* ctx)&lt;/b&gt;&lt;/p&gt;" style="verticalAlign=top;align=left;overflow=fill;fontSize=12;fontFamily=Helvetica;html=1;fillColor=#d5e8d4;strokeColor=#82b366;" parent="1" vertex="1">
          <mxGeometry x="690" y="510" width="190" height="60" as="geometry" />
        </mxCell>
        <mxCell id="KZ4r9hNkFcLXsH2UTqzE-37" value="TensorArgDef" style="swimlane;fontStyle=1;childLayout=stackLayout;horizontal=1;startSize=26;fillColor=#d5e8d4;horizontalStack=0;resizeParent=1;resizeParentMax=0;resizeLast=0;collapsible=1;marginBottom=0;strokeColor=#82b366;" parent="1" vertex="1">
          <mxGeometry x="270" y="750" width="180" height="130" as="geometry" />
        </mxCell>
        <mxCell id="KZ4r9hNkFcLXsH2UTqzE-48" value="+ type_index:Â std::type_index" style="text;strokeColor=none;fillColor=none;align=left;verticalAlign=top;spacingLeft=4;spacingRight=4;overflow=hidden;rotatable=0;points=[[0,0.5],[1,0.5]];portConstraint=eastwest;" parent="KZ4r9hNkFcLXsH2UTqzE-37" vertex="1">
          <mxGeometry y="26" width="180" height="26" as="geometry" />
        </mxCell>
        <mxCell id="KZ4r9hNkFcLXsH2UTqzE-43" value="+ dtype: DataType" style="text;strokeColor=none;fillColor=none;align=left;verticalAlign=top;spacingLeft=4;spacingRight=4;overflow=hidden;rotatable=0;points=[[0,0.5],[1,0.5]];portConstraint=eastwest;" parent="KZ4r9hNkFcLXsH2UTqzE-37" vertex="1">
          <mxGeometry y="52" width="180" height="26" as="geometry" />
        </mxCell>
        <mxCell id="KZ4r9hNkFcLXsH2UTqzE-42" value="+ layout: DataLayout" style="text;strokeColor=none;fillColor=none;align=left;verticalAlign=top;spacingLeft=4;spacingRight=4;overflow=hidden;rotatable=0;points=[[0,0.5],[1,0.5]];portConstraint=eastwest;" parent="KZ4r9hNkFcLXsH2UTqzE-37" vertex="1">
          <mxGeometry y="78" width="180" height="26" as="geometry" />
        </mxCell>
        <mxCell id="KZ4r9hNkFcLXsH2UTqzE-41" value="+ backend: Backend" style="text;strokeColor=none;fillColor=none;align=left;verticalAlign=top;spacingLeft=4;spacingRight=4;overflow=hidden;rotatable=0;points=[[0,0.5],[1,0.5]];portConstraint=eastwest;" parent="KZ4r9hNkFcLXsH2UTqzE-37" vertex="1">
          <mxGeometry y="104" width="180" height="26" as="geometry" />
        </mxCell>
        <mxCell id="KZ4r9hNkFcLXsH2UTqzE-44" value="AttribubteArgDef" style="swimlane;fontStyle=1;childLayout=stackLayout;horizontal=1;startSize=26;fillColor=#d5e8d4;horizontalStack=0;resizeParent=1;resizeParentMax=0;resizeLast=0;collapsible=1;marginBottom=0;strokeColor=#82b366;" parent="1" vertex="1">
          <mxGeometry x="510" y="750" width="190" height="52" as="geometry" />
        </mxCell>
        <mxCell id="KZ4r9hNkFcLXsH2UTqzE-45" value="+ type_index: AttributeType" style="text;strokeColor=none;fillColor=none;align=left;verticalAlign=top;spacingLeft=4;spacingRight=4;overflow=hidden;rotatable=0;points=[[0,0.5],[1,0.5]];portConstraint=eastwest;" parent="KZ4r9hNkFcLXsH2UTqzE-44" vertex="1">
          <mxGeometry y="26" width="190" height="26" as="geometry" />
        </mxCell>
        <mxCell id="KZ4r9hNkFcLXsH2UTqzE-49" value="" style="endArrow=open;html=1;endSize=12;startArrow=diamondThin;startSize=14;startFill=1;edgeStyle=orthogonalEdgeStyle;align=left;verticalAlign=bottom;exitX=0.515;exitY=1.038;exitDx=0;exitDy=0;exitPerimeter=0;entryX=0.5;entryY=0;entryDx=0;entryDy=0;" parent="1" source="KZ4r9hNkFcLXsH2UTqzE-7" target="KZ4r9hNkFcLXsH2UTqzE-12" edge="1">
          <mxGeometry x="-1" y="3" relative="1" as="geometry">
            <mxPoint x="230" y="490" as="sourcePoint" />
            <mxPoint x="410" y="310" as="targetPoint" />
          </mxGeometry>
        </mxCell>
        <mxCell id="KZ4r9hNkFcLXsH2UTqzE-50" value="" style="endArrow=open;html=1;endSize=12;startArrow=diamondThin;startSize=14;startFill=1;edgeStyle=orthogonalEdgeStyle;align=left;verticalAlign=bottom;entryX=0.5;entryY=0;entryDx=0;entryDy=0;" parent="1" target="KZ4r9hNkFcLXsH2UTqzE-16" edge="1">
          <mxGeometry x="-1" y="3" relative="1" as="geometry">
            <mxPoint x="420" y="250" as="sourcePoint" />
            <mxPoint x="429" y="310" as="targetPoint" />
            <Array as="points">
              <mxPoint x="420" y="270" />
              <mxPoint x="655" y="270" />
            </Array>
          </mxGeometry>
        </mxCell>
        <mxCell id="KZ4r9hNkFcLXsH2UTqzE-51" value="" style="endArrow=open;html=1;endSize=12;startArrow=diamondThin;startSize=14;startFill=1;edgeStyle=orthogonalEdgeStyle;align=left;verticalAlign=bottom;entryX=0.5;entryY=0;entryDx=0;entryDy=0;" parent="1" target="KZ4r9hNkFcLXsH2UTqzE-8" edge="1">
          <mxGeometry x="-1" y="3" relative="1" as="geometry">
            <mxPoint x="420" y="250" as="sourcePoint" />
            <mxPoint x="665" y="310" as="targetPoint" />
            <Array as="points">
              <mxPoint x="420" y="270" />
              <mxPoint x="170" y="270" />
            </Array>
          </mxGeometry>
        </mxCell>
        <mxCell id="KZ4r9hNkFcLXsH2UTqzE-52" value="" style="endArrow=open;html=1;endSize=12;startArrow=diamondThin;startSize=14;startFill=1;edgeStyle=orthogonalEdgeStyle;align=left;verticalAlign=bottom;entryX=0.5;entryY=0;entryDx=0;entryDy=0;" parent="1" target="KZ4r9hNkFcLXsH2UTqzE-36" edge="1">
          <mxGeometry x="-1" y="3" relative="1" as="geometry">
            <mxPoint x="655" y="464" as="sourcePoint" />
            <mxPoint x="790" y="510" as="targetPoint" />
            <Array as="points">
              <mxPoint x="655" y="490" />
              <mxPoint x="785" y="490" />
            </Array>
          </mxGeometry>
        </mxCell>
        <mxCell id="KZ4r9hNkFcLXsH2UTqzE-53" value="" style="endArrow=open;html=1;endSize=12;startArrow=diamondThin;startSize=14;startFill=1;edgeStyle=orthogonalEdgeStyle;align=left;verticalAlign=bottom;" parent="1" edge="1">
          <mxGeometry x="-1" y="3" relative="1" as="geometry">
            <mxPoint x="655" y="464" as="sourcePoint" />
            <mxPoint x="480" y="511" as="targetPoint" />
            <Array as="points">
              <mxPoint x="655" y="490" />
              <mxPoint x="480" y="490" />
              <mxPoint x="480" y="511" />
            </Array>
          </mxGeometry>
        </mxCell>
        <mxCell id="KZ4r9hNkFcLXsH2UTqzE-54" value="" style="endArrow=open;html=1;endSize=12;startArrow=diamondThin;startSize=14;startFill=1;edgeStyle=orthogonalEdgeStyle;align=left;verticalAlign=bottom;" parent="1" source="KZ4r9hNkFcLXsH2UTqzE-32" target="KZ4r9hNkFcLXsH2UTqzE-37" edge="1">
          <mxGeometry x="-1" y="3" relative="1" as="geometry">
            <mxPoint x="475" y="700" as="sourcePoint" />
            <mxPoint x="360" y="747" as="targetPoint" />
            <Array as="points">
              <mxPoint x="490" y="730" />
              <mxPoint x="360" y="730" />
            </Array>
          </mxGeometry>
        </mxCell>
        <mxCell id="KZ4r9hNkFcLXsH2UTqzE-56" value="" style="endArrow=open;html=1;endSize=12;startArrow=diamondThin;startSize=14;startFill=1;edgeStyle=orthogonalEdgeStyle;align=left;verticalAlign=bottom;entryX=0.5;entryY=0;entryDx=0;entryDy=0;" parent="1" target="KZ4r9hNkFcLXsH2UTqzE-44" edge="1">
          <mxGeometry x="-1" y="3" relative="1" as="geometry">
            <mxPoint x="490" y="700" as="sourcePoint" />
            <mxPoint x="370.02857142857135" y="760" as="targetPoint" />
            <Array as="points">
              <mxPoint x="490" y="730" />
              <mxPoint x="605" y="730" />
            </Array>
          </mxGeometry>
        </mxCell>
      </root>
    </mxGraphModel>
  </diagram>
  <diagram id="dIH4wVsSKJvN1zwXNLw_" name="Design-2">
    <mxGraphModel dx="946" dy="613" grid="1" gridSize="10" guides="1" tooltips="1" connect="1" arrows="1" fold="1" page="1" pageScale="1" pageWidth="827" pageHeight="1169" background="#000000" math="0" shadow="0">
      <root>
        <mxCell id="0" />
        <mxCell id="1" parent="0" />
        <mxCell id="F0kWJJUFohi8kCrxA5ep-1" value="KernelFactory" style="swimlane;fontStyle=1;align=center;verticalAlign=top;childLayout=stackLayout;horizontal=1;startSize=26;horizontalStack=0;resizeParent=1;resizeParentMax=0;resizeLast=0;collapsible=1;marginBottom=0;fillColor=#dae8fc;strokeColor=#FFFFFF;fontColor=#000000;" vertex="1" parent="1">
          <mxGeometry x="249" y="140" width="330" height="110" as="geometry" />
        </mxCell>
        <mxCell id="F0kWJJUFohi8kCrxA5ep-2" value="- kernels_: map&lt;KernelName, map&lt;KernelKey, Kernel&gt;&gt;;" style="text;strokeColor=#FFFFFF;fillColor=none;align=left;verticalAlign=top;spacingLeft=4;spacingRight=4;overflow=hidden;rotatable=0;points=[[0,0.5],[1,0.5]];portConstraint=eastwest;fontColor=#FFFFFF;" vertex="1" parent="F0kWJJUFohi8kCrxA5ep-1">
          <mxGeometry y="26" width="330" height="24" as="geometry" />
        </mxCell>
        <mxCell id="F0kWJJUFohi8kCrxA5ep-3" value="" style="line;strokeWidth=1;fillColor=none;align=left;verticalAlign=middle;spacingTop=-1;spacingLeft=3;spacingRight=3;rotatable=0;labelPosition=right;points=[];portConstraint=eastwest;fontColor=#FFFFFF;strokeColor=#FFFFFF;" vertex="1" parent="F0kWJJUFohi8kCrxA5ep-1">
          <mxGeometry y="50" width="330" height="8" as="geometry" />
        </mxCell>
        <mxCell id="F0kWJJUFohi8kCrxA5ep-4" value="+ Instance():Â KernelFactory" style="text;strokeColor=#FFFFFF;fillColor=none;align=left;verticalAlign=top;spacingLeft=4;spacingRight=4;overflow=hidden;rotatable=0;points=[[0,0.5],[1,0.5]];portConstraint=eastwest;fontColor=#FFFFFF;" vertex="1" parent="F0kWJJUFohi8kCrxA5ep-1">
          <mxGeometry y="58" width="330" height="26" as="geometry" />
        </mxCell>
        <mxCell id="F0kWJJUFohi8kCrxA5ep-5" value="+ SelectKernel(KernelName, KernelKey): Kernel" style="text;strokeColor=#FFFFFF;fillColor=none;align=left;verticalAlign=top;spacingLeft=4;spacingRight=4;overflow=hidden;rotatable=0;points=[[0,0.5],[1,0.5]];portConstraint=eastwest;fontColor=#FFFFFF;" vertex="1" parent="F0kWJJUFohi8kCrxA5ep-1">
          <mxGeometry y="84" width="330" height="26" as="geometry" />
        </mxCell>
        <mxCell id="F0kWJJUFohi8kCrxA5ep-11" value="KernelKey" style="swimlane;fontStyle=1;align=center;verticalAlign=top;childLayout=stackLayout;horizontal=1;startSize=26;horizontalStack=0;resizeParent=1;resizeParentMax=0;resizeLast=0;collapsible=1;marginBottom=0;fillColor=#ffe6cc;strokeColor=#FFFFFF;fontColor=#000000;" vertex="1" parent="1">
          <mxGeometry x="339" y="300" width="160" height="138" as="geometry" />
        </mxCell>
        <mxCell id="F0kWJJUFohi8kCrxA5ep-12" value="- backend_: Backend" style="text;strokeColor=#FFFFFF;fillColor=none;align=left;verticalAlign=top;spacingLeft=4;spacingRight=4;overflow=hidden;rotatable=0;points=[[0,0.5],[1,0.5]];portConstraint=eastwest;fontColor=#FFFFFF;" vertex="1" parent="F0kWJJUFohi8kCrxA5ep-11">
          <mxGeometry y="26" width="160" height="26" as="geometry" />
        </mxCell>
        <mxCell id="F0kWJJUFohi8kCrxA5ep-13" value="- layout_: DataLayout" style="text;strokeColor=#FFFFFF;fillColor=none;align=left;verticalAlign=top;spacingLeft=4;spacingRight=4;overflow=hidden;rotatable=0;points=[[0,0.5],[1,0.5]];portConstraint=eastwest;fontColor=#FFFFFF;" vertex="1" parent="F0kWJJUFohi8kCrxA5ep-11">
          <mxGeometry y="52" width="160" height="26" as="geometry" />
        </mxCell>
        <mxCell id="F0kWJJUFohi8kCrxA5ep-14" value="- dtype_: DataType" style="text;strokeColor=#FFFFFF;fillColor=none;align=left;verticalAlign=top;spacingLeft=4;spacingRight=4;overflow=hidden;rotatable=0;points=[[0,0.5],[1,0.5]];portConstraint=eastwest;fontColor=#FFFFFF;" vertex="1" parent="F0kWJJUFohi8kCrxA5ep-11">
          <mxGeometry y="78" width="160" height="26" as="geometry" />
        </mxCell>
        <mxCell id="F0kWJJUFohi8kCrxA5ep-15" value="" style="line;strokeWidth=1;fillColor=none;align=left;verticalAlign=middle;spacingTop=-1;spacingLeft=3;spacingRight=3;rotatable=0;labelPosition=right;points=[];portConstraint=eastwest;fontColor=#FFFFFF;strokeColor=#FFFFFF;" vertex="1" parent="F0kWJJUFohi8kCrxA5ep-11">
          <mxGeometry y="104" width="160" height="8" as="geometry" />
        </mxCell>
        <mxCell id="F0kWJJUFohi8kCrxA5ep-16" value="+ KernelKey(...)" style="text;strokeColor=#FFFFFF;fillColor=none;align=left;verticalAlign=top;spacingLeft=4;spacingRight=4;overflow=hidden;rotatable=0;points=[[0,0.5],[1,0.5]];portConstraint=eastwest;fontColor=#FFFFFF;" vertex="1" parent="F0kWJJUFohi8kCrxA5ep-11">
          <mxGeometry y="112" width="160" height="26" as="geometry" />
        </mxCell>
        <mxCell id="F0kWJJUFohi8kCrxA5ep-17" value="Kernel" style="swimlane;fontStyle=1;align=center;verticalAlign=top;childLayout=stackLayout;horizontal=1;startSize=26;horizontalStack=0;resizeParent=1;resizeParentMax=0;resizeLast=0;collapsible=1;marginBottom=0;fillColor=#d5e8d4;strokeColor=#FFFFFF;fontColor=#000000;" vertex="1" parent="1">
          <mxGeometry x="560" y="300" width="190" height="190" as="geometry" />
        </mxCell>
        <mxCell id="F0kWJJUFohi8kCrxA5ep-18" value="- fn_: KernelFn" style="text;strokeColor=#FFFFFF;fillColor=none;align=left;verticalAlign=top;spacingLeft=4;spacingRight=4;overflow=hidden;rotatable=0;points=[[0,0.5],[1,0.5]];portConstraint=eastwest;fontColor=#FFFFFF;" vertex="1" parent="F0kWJJUFohi8kCrxA5ep-17">
          <mxGeometry y="26" width="190" height="26" as="geometry" />
        </mxCell>
        <mxCell id="F0kWJJUFohi8kCrxA5ep-50" value="- variadic_fn_: void*" style="text;strokeColor=#FFFFFF;fillColor=none;align=left;verticalAlign=top;spacingLeft=4;spacingRight=4;overflow=hidden;rotatable=0;points=[[0,0.5],[1,0.5]];portConstraint=eastwest;fontColor=#FFFFFF;" vertex="1" parent="F0kWJJUFohi8kCrxA5ep-17">
          <mxGeometry y="52" width="190" height="26" as="geometry" />
        </mxCell>
        <mxCell id="F0kWJJUFohi8kCrxA5ep-19" value="- args_def_: KernelArgsDef" style="text;strokeColor=#FFFFFF;fillColor=none;align=left;verticalAlign=top;spacingLeft=4;spacingRight=4;overflow=hidden;rotatable=0;points=[[0,0.5],[1,0.5]];portConstraint=eastwest;fontColor=#FFFFFF;" vertex="1" parent="F0kWJJUFohi8kCrxA5ep-17">
          <mxGeometry y="78" width="190" height="26" as="geometry" />
        </mxCell>
        <mxCell id="F0kWJJUFohi8kCrxA5ep-20" value="" style="line;strokeWidth=1;fillColor=none;align=left;verticalAlign=middle;spacingTop=-1;spacingLeft=3;spacingRight=3;rotatable=0;labelPosition=right;points=[];portConstraint=eastwest;fontColor=#FFFFFF;strokeColor=#FFFFFF;" vertex="1" parent="F0kWJJUFohi8kCrxA5ep-17">
          <mxGeometry y="104" width="190" height="8" as="geometry" />
        </mxCell>
        <mxCell id="F0kWJJUFohi8kCrxA5ep-21" value="+ Kernel(KernelFn):" style="text;strokeColor=#FFFFFF;fillColor=none;align=left;verticalAlign=top;spacingLeft=4;spacingRight=4;overflow=hidden;rotatable=0;points=[[0,0.5],[1,0.5]];portConstraint=eastwest;fontColor=#FFFFFF;" vertex="1" parent="F0kWJJUFohi8kCrxA5ep-17">
          <mxGeometry y="112" width="190" height="26" as="geometry" />
        </mxCell>
        <mxCell id="F0kWJJUFohi8kCrxA5ep-22" value="+ InputAt(size_t): TensorArgDef" style="text;strokeColor=#FFFFFF;fillColor=none;align=left;verticalAlign=top;spacingLeft=4;spacingRight=4;overflow=hidden;rotatable=0;points=[[0,0.5],[1,0.5]];portConstraint=eastwest;fontColor=#FFFFFF;" vertex="1" parent="F0kWJJUFohi8kCrxA5ep-17">
          <mxGeometry y="138" width="190" height="26" as="geometry" />
        </mxCell>
        <mxCell id="F0kWJJUFohi8kCrxA5ep-23" value="+ OutputAt(size_t): TensorArgDef" style="text;strokeColor=#FFFFFF;fillColor=none;align=left;verticalAlign=top;spacingLeft=4;spacingRight=4;overflow=hidden;rotatable=0;points=[[0,0.5],[1,0.5]];portConstraint=eastwest;fontColor=#FFFFFF;" vertex="1" parent="F0kWJJUFohi8kCrxA5ep-17">
          <mxGeometry y="164" width="190" height="26" as="geometry" />
        </mxCell>
        <mxCell id="F0kWJJUFohi8kCrxA5ep-24" value="KernelArgsDef" style="swimlane;fontStyle=1;align=center;verticalAlign=top;childLayout=stackLayout;horizontal=1;startSize=26;horizontalStack=0;resizeParent=1;resizeParentMax=0;resizeLast=0;collapsible=1;marginBottom=0;fillColor=#d5e8d4;strokeColor=#FFFFFF;fontColor=#000000;" vertex="1" parent="1">
          <mxGeometry x="350" y="536" width="290" height="190" as="geometry" />
        </mxCell>
        <mxCell id="F0kWJJUFohi8kCrxA5ep-25" value="- input_defs_: vector&lt;TensorArgDef&gt;" style="text;strokeColor=#FFFFFF;fillColor=none;align=left;verticalAlign=top;spacingLeft=4;spacingRight=4;overflow=hidden;rotatable=0;points=[[0,0.5],[1,0.5]];portConstraint=eastwest;fontColor=#FFFFFF;" vertex="1" parent="F0kWJJUFohi8kCrxA5ep-24">
          <mxGeometry y="26" width="290" height="26" as="geometry" />
        </mxCell>
        <mxCell id="F0kWJJUFohi8kCrxA5ep-26" value="- output_defs_: vector&lt;TensorArgDef&gt;" style="text;strokeColor=#FFFFFF;fillColor=none;align=left;verticalAlign=top;spacingLeft=4;spacingRight=4;overflow=hidden;rotatable=0;points=[[0,0.5],[1,0.5]];portConstraint=eastwest;fontColor=#FFFFFF;" vertex="1" parent="F0kWJJUFohi8kCrxA5ep-24">
          <mxGeometry y="52" width="290" height="26" as="geometry" />
        </mxCell>
        <mxCell id="F0kWJJUFohi8kCrxA5ep-27" value="- attribute_defs_:Â vector&lt;AttributeArgDef&gt;" style="text;strokeColor=#FFFFFF;fillColor=none;align=left;verticalAlign=top;spacingLeft=4;spacingRight=4;overflow=hidden;rotatable=0;points=[[0,0.5],[1,0.5]];portConstraint=eastwest;fontColor=#FFFFFF;" vertex="1" parent="F0kWJJUFohi8kCrxA5ep-24">
          <mxGeometry y="78" width="290" height="26" as="geometry" />
        </mxCell>
        <mxCell id="F0kWJJUFohi8kCrxA5ep-28" value="" style="line;strokeWidth=1;fillColor=none;align=left;verticalAlign=middle;spacingTop=-1;spacingLeft=3;spacingRight=3;rotatable=0;labelPosition=right;points=[];portConstraint=eastwest;fontColor=#FFFFFF;strokeColor=#FFFFFF;" vertex="1" parent="F0kWJJUFohi8kCrxA5ep-24">
          <mxGeometry y="104" width="290" height="8" as="geometry" />
        </mxCell>
        <mxCell id="F0kWJJUFohi8kCrxA5ep-29" value="+Â AppendInput(Backend, Layout, DType): void" style="text;strokeColor=#FFFFFF;fillColor=none;align=left;verticalAlign=top;spacingLeft=4;spacingRight=4;overflow=hidden;rotatable=0;points=[[0,0.5],[1,0.5]];portConstraint=eastwest;fontColor=#FFFFFF;" vertex="1" parent="F0kWJJUFohi8kCrxA5ep-24">
          <mxGeometry y="112" width="290" height="26" as="geometry" />
        </mxCell>
        <mxCell id="F0kWJJUFohi8kCrxA5ep-30" value="+ AppendOutput(Backend, Layout, DType): void" style="text;strokeColor=#FFFFFF;fillColor=none;align=left;verticalAlign=top;spacingLeft=4;spacingRight=4;overflow=hidden;rotatable=0;points=[[0,0.5],[1,0.5]];portConstraint=eastwest;fontColor=#FFFFFF;" vertex="1" parent="F0kWJJUFohi8kCrxA5ep-24">
          <mxGeometry y="138" width="290" height="26" as="geometry" />
        </mxCell>
        <mxCell id="F0kWJJUFohi8kCrxA5ep-31" value="+Â AppendAttribute(std::type_index): coid" style="text;strokeColor=#FFFFFF;fillColor=none;align=left;verticalAlign=top;spacingLeft=4;spacingRight=4;overflow=hidden;rotatable=0;points=[[0,0.5],[1,0.5]];portConstraint=eastwest;fontColor=#FFFFFF;" vertex="1" parent="F0kWJJUFohi8kCrxA5ep-24">
          <mxGeometry y="164" width="290" height="26" as="geometry" />
        </mxCell>
        <mxCell id="F0kWJJUFohi8kCrxA5ep-32" value="" style="text;strokeColor=#FFFFFF;fillColor=none;align=left;verticalAlign=middle;spacingTop=-1;spacingLeft=4;spacingRight=4;rotatable=0;labelPosition=right;points=[];portConstraint=eastwest;fontColor=#FFFFFF;" vertex="1" parent="1">
          <mxGeometry x="160" y="600" width="20" height="14" as="geometry" />
        </mxCell>
        <mxCell id="F0kWJJUFohi8kCrxA5ep-33" value="&lt;p style=&quot;margin: 0px ; margin-top: 4px ; text-align: center&quot;&gt;&lt;font color=&quot;#000000&quot;&gt;&lt;br&gt;&lt;b&gt;KernelFn =&amp;nbsp;&lt;/b&gt;&lt;/font&gt;&lt;/p&gt;&lt;p style=&quot;margin: 0px ; margin-top: 4px ; text-align: center&quot;&gt;&lt;b&gt;&lt;font color=&quot;#000000&quot;&gt;void (*)(KernelContext* ctx)&lt;/font&gt;&lt;/b&gt;&lt;/p&gt;" style="verticalAlign=top;align=left;overflow=fill;fontSize=12;fontFamily=Helvetica;html=1;fillColor=#d5e8d4;strokeColor=#FFFFFF;fontColor=#FFFFFF;" vertex="1" parent="1">
          <mxGeometry x="690" y="536" width="190" height="60" as="geometry" />
        </mxCell>
        <mxCell id="F0kWJJUFohi8kCrxA5ep-34" value="TensorArgDef" style="swimlane;fontStyle=1;childLayout=stackLayout;horizontal=1;startSize=26;fillColor=#d5e8d4;horizontalStack=0;resizeParent=1;resizeParentMax=0;resizeLast=0;collapsible=1;marginBottom=0;strokeColor=#FFFFFF;fontColor=#FFFFFF;" vertex="1" parent="1">
          <mxGeometry x="270" y="776" width="180" height="130" as="geometry" />
        </mxCell>
        <mxCell id="F0kWJJUFohi8kCrxA5ep-35" value="+ type_index:Â std::type_index" style="text;strokeColor=#FFFFFF;fillColor=none;align=left;verticalAlign=top;spacingLeft=4;spacingRight=4;overflow=hidden;rotatable=0;points=[[0,0.5],[1,0.5]];portConstraint=eastwest;fontColor=#FFFFFF;" vertex="1" parent="F0kWJJUFohi8kCrxA5ep-34">
          <mxGeometry y="26" width="180" height="26" as="geometry" />
        </mxCell>
        <mxCell id="F0kWJJUFohi8kCrxA5ep-36" value="+ dtype: DataType" style="text;strokeColor=#FFFFFF;fillColor=none;align=left;verticalAlign=top;spacingLeft=4;spacingRight=4;overflow=hidden;rotatable=0;points=[[0,0.5],[1,0.5]];portConstraint=eastwest;fontColor=#FFFFFF;" vertex="1" parent="F0kWJJUFohi8kCrxA5ep-34">
          <mxGeometry y="52" width="180" height="26" as="geometry" />
        </mxCell>
        <mxCell id="F0kWJJUFohi8kCrxA5ep-37" value="+ layout: DataLayout" style="text;strokeColor=#FFFFFF;fillColor=none;align=left;verticalAlign=top;spacingLeft=4;spacingRight=4;overflow=hidden;rotatable=0;points=[[0,0.5],[1,0.5]];portConstraint=eastwest;fontColor=#FFFFFF;" vertex="1" parent="F0kWJJUFohi8kCrxA5ep-34">
          <mxGeometry y="78" width="180" height="26" as="geometry" />
        </mxCell>
        <mxCell id="F0kWJJUFohi8kCrxA5ep-38" value="+ backend: Backend" style="text;strokeColor=#FFFFFF;fillColor=none;align=left;verticalAlign=top;spacingLeft=4;spacingRight=4;overflow=hidden;rotatable=0;points=[[0,0.5],[1,0.5]];portConstraint=eastwest;fontColor=#FFFFFF;" vertex="1" parent="F0kWJJUFohi8kCrxA5ep-34">
          <mxGeometry y="104" width="180" height="26" as="geometry" />
        </mxCell>
        <mxCell id="F0kWJJUFohi8kCrxA5ep-39" value="AttribubteArgDef" style="swimlane;fontStyle=1;childLayout=stackLayout;horizontal=1;startSize=26;fillColor=#d5e8d4;horizontalStack=0;resizeParent=1;resizeParentMax=0;resizeLast=0;collapsible=1;marginBottom=0;strokeColor=#FFFFFF;fontColor=#FFFFFF;" vertex="1" parent="1">
          <mxGeometry x="510" y="776" width="190" height="52" as="geometry" />
        </mxCell>
        <mxCell id="F0kWJJUFohi8kCrxA5ep-40" value="+ type_index: AttributeType" style="text;strokeColor=#FFFFFF;fillColor=none;align=left;verticalAlign=top;spacingLeft=4;spacingRight=4;overflow=hidden;rotatable=0;points=[[0,0.5],[1,0.5]];portConstraint=eastwest;fontColor=#FFFFFF;" vertex="1" parent="F0kWJJUFohi8kCrxA5ep-39">
          <mxGeometry y="26" width="190" height="26" as="geometry" />
        </mxCell>
        <mxCell id="F0kWJJUFohi8kCrxA5ep-41" value="" style="endArrow=open;html=1;endSize=12;startArrow=diamondThin;startSize=14;startFill=1;edgeStyle=orthogonalEdgeStyle;align=left;verticalAlign=bottom;exitX=0.515;exitY=1.038;exitDx=0;exitDy=0;exitPerimeter=0;entryX=0.5;entryY=0;entryDx=0;entryDy=0;fontColor=#FFFFFF;strokeColor=#FFFFFF;" edge="1" parent="1" source="F0kWJJUFohi8kCrxA5ep-5" target="F0kWJJUFohi8kCrxA5ep-11">
          <mxGeometry x="-1" y="3" relative="1" as="geometry">
            <mxPoint x="230" y="490" as="sourcePoint" />
            <mxPoint x="410" y="310" as="targetPoint" />
          </mxGeometry>
        </mxCell>
        <mxCell id="F0kWJJUFohi8kCrxA5ep-42" value="" style="endArrow=open;html=1;endSize=12;startArrow=diamondThin;startSize=14;startFill=1;edgeStyle=orthogonalEdgeStyle;align=left;verticalAlign=bottom;entryX=0.5;entryY=0;entryDx=0;entryDy=0;fontColor=#FFFFFF;strokeColor=#FFFFFF;" edge="1" parent="1" target="F0kWJJUFohi8kCrxA5ep-17">
          <mxGeometry x="-1" y="3" relative="1" as="geometry">
            <mxPoint x="420" y="250" as="sourcePoint" />
            <mxPoint x="429" y="310" as="targetPoint" />
            <Array as="points">
              <mxPoint x="420" y="270" />
              <mxPoint x="655" y="270" />
            </Array>
          </mxGeometry>
        </mxCell>
        <mxCell id="F0kWJJUFohi8kCrxA5ep-43" value="" style="endArrow=open;html=1;endSize=12;startArrow=diamondThin;startSize=14;startFill=1;edgeStyle=orthogonalEdgeStyle;align=left;verticalAlign=bottom;entryX=0.5;entryY=0;entryDx=0;entryDy=0;fontColor=#FFFFFF;strokeColor=#FFFFFF;" edge="1" parent="1">
          <mxGeometry x="-1" y="3" relative="1" as="geometry">
            <mxPoint x="420" y="250" as="sourcePoint" />
            <mxPoint x="170" y="300" as="targetPoint" />
            <Array as="points">
              <mxPoint x="420" y="270" />
              <mxPoint x="170" y="270" />
            </Array>
          </mxGeometry>
        </mxCell>
        <mxCell id="F0kWJJUFohi8kCrxA5ep-44" value="" style="endArrow=open;html=1;endSize=12;startArrow=diamondThin;startSize=14;startFill=1;edgeStyle=orthogonalEdgeStyle;align=left;verticalAlign=bottom;entryX=0.5;entryY=0;entryDx=0;entryDy=0;fontColor=#FFFFFF;strokeColor=#FFFFFF;" edge="1" parent="1" target="F0kWJJUFohi8kCrxA5ep-33">
          <mxGeometry x="-1" y="3" relative="1" as="geometry">
            <mxPoint x="655" y="490" as="sourcePoint" />
            <mxPoint x="790" y="536" as="targetPoint" />
            <Array as="points">
              <mxPoint x="655" y="516" />
              <mxPoint x="785" y="516" />
            </Array>
          </mxGeometry>
        </mxCell>
        <mxCell id="F0kWJJUFohi8kCrxA5ep-45" value="" style="endArrow=open;html=1;endSize=12;startArrow=diamondThin;startSize=14;startFill=1;edgeStyle=orthogonalEdgeStyle;align=left;verticalAlign=bottom;fontColor=#FFFFFF;strokeColor=#FFFFFF;" edge="1" parent="1">
          <mxGeometry x="-1" y="3" relative="1" as="geometry">
            <mxPoint x="655" y="490" as="sourcePoint" />
            <mxPoint x="480" y="537" as="targetPoint" />
            <Array as="points">
              <mxPoint x="655" y="516" />
              <mxPoint x="480" y="516" />
              <mxPoint x="480" y="537" />
            </Array>
          </mxGeometry>
        </mxCell>
        <mxCell id="F0kWJJUFohi8kCrxA5ep-46" value="" style="endArrow=open;html=1;endSize=12;startArrow=diamondThin;startSize=14;startFill=1;edgeStyle=orthogonalEdgeStyle;align=left;verticalAlign=bottom;fontColor=#FFFFFF;strokeColor=#FFFFFF;" edge="1" parent="1" source="F0kWJJUFohi8kCrxA5ep-31" target="F0kWJJUFohi8kCrxA5ep-34">
          <mxGeometry x="-1" y="3" relative="1" as="geometry">
            <mxPoint x="475" y="726" as="sourcePoint" />
            <mxPoint x="360" y="773" as="targetPoint" />
            <Array as="points">
              <mxPoint x="490" y="756" />
              <mxPoint x="360" y="756" />
            </Array>
          </mxGeometry>
        </mxCell>
        <mxCell id="F0kWJJUFohi8kCrxA5ep-47" value="" style="endArrow=open;html=1;endSize=12;startArrow=diamondThin;startSize=14;startFill=1;edgeStyle=orthogonalEdgeStyle;align=left;verticalAlign=bottom;entryX=0.5;entryY=0;entryDx=0;entryDy=0;fontColor=#FFFFFF;strokeColor=#FFFFFF;" edge="1" parent="1" target="F0kWJJUFohi8kCrxA5ep-39">
          <mxGeometry x="-1" y="3" relative="1" as="geometry">
            <mxPoint x="490" y="726" as="sourcePoint" />
            <mxPoint x="370.02857142857135" y="786" as="targetPoint" />
            <Array as="points">
              <mxPoint x="490" y="756" />
              <mxPoint x="605" y="756" />
            </Array>
          </mxGeometry>
        </mxCell>
        <mxCell id="F0kWJJUFohi8kCrxA5ep-48" value="&lt;b&gt;KernelName&lt;br&gt;(std::string)&lt;/b&gt;" style="rounded=0;whiteSpace=wrap;html=1;fillColor=#f8cecc;strokeColor=#FFFFFF;fontColor=#000000;" vertex="1" parent="1">
          <mxGeometry x="100" y="300" width="140" height="60" as="geometry" />
        </mxCell>
      </root>
    </mxGraphModel>
  </diagram>
</mxfile>
